# xmcd
#
# Track frame offsets:
#	150
#	65022
#	80238
#	96383
#	116594
#	139221
#	160864
#	179950
#	196913
#	211816
#	229305
#
# Disc length: 3234 seconds
#
# Revision: 0
# Processed by: cddbd v1.5.2PL0 Copyright (c) Steve Scherf et al.
# Submitted via: EZCDAudioConverter 1.2.3.1
#
DISCID=a90ca00b
DTITLE=Neném do Sax - Bombordo
DYEAR=2009
DGENRE=Blues
TTITLE0=Nenem do Sax - O Bolero
TTITLE1=Nenem do Sax - Prelúdio
TTITLE2=Nenem do Sax - As rosas não falam
TTITLE3=Nenem do Sax - Dúvidas
TTITLE4=Nenem do Sax - Faltando um pedaço
TTITLE5=Nenem do Sax - Aubrey
TTITLE6=Nenem do Sax - Sexed up
TTITLE7=Nenem do Sax - Innocence
TTITLE8=Nenem do Sax - Imagine
TTITLE9=Nenem do Sax com Kelly Freitas - Nossa canção
TTITLE10=Nenem do Sax - Ave maria
EXTD=
EXTT0=
EXTT1=
EXTT2=
EXTT3=
EXTT4=
EXTT5=
EXTT6=
EXTT7=
EXTT8=
EXTT9=
EXTT10=
PLAYORDER=
